<svg width="70" xmlns="http://www.w3.org/2000/svg" height="86.062" viewBox="0 0 70 86.062" xmlns:xlink="http://www.w3.org/1999/xlink" enable-background="new 0 0 70 86.062">
<g fill="#f7f7f7" class="icon-pdf"><path d="m34.925,60.487h-2.256v12.988h1.818c4.083,0 6.125-2.188 6.125-6.562 .001-4.284-1.895-6.426-5.687-6.426z"/><path d="m17.015,60.487h-1.928v5.934h1.395c1.303,0 2.278-.257 2.926-.772 .647-.515 .971-1.265 .971-2.249 0-.993-.271-1.727-.813-2.201-.544-.475-1.394-.712-2.551-.712z"/><path d="m69.917,31.229l-31.167-31.229h-38.75v86.062h70l-.083-54.833zm-32.084-17.999l19.333,18.833h-19.333v-18.833zm-15.224,54.954c-1.339,1.14-3.242,1.709-5.711,1.709h-1.811v7.109h-4.238v-19.988h6.366c2.417,0 4.255,.522 5.514,1.565 1.259,1.044 1.888,2.6 1.888,4.669-0,2.152-.67,3.797-2.008,4.936zm19.46,6.19c-1.855,1.752-4.533,2.628-8.034,2.628h-5.604v-19.988h6.213c3.23,0 5.739,.86 7.526,2.581 1.787,1.72 2.68,4.124 2.68,7.209 .001,3.294-.926,5.818-2.781,7.57zm18.546-13.887h-7.287v5.154h6.781v3.473h-6.781v7.889h-4.17v-19.989h11.457v3.473z"/>
</g>
</svg>
