<svg xmlns="http://www.w3.org/2000/svg" fill="none" viewBox="0 0 24 24">
  <style>
    path { fill: #4b3881; }
    @media (prefers-color-scheme: dark) {
    path { fill: #ff6cbd; }
    }
  </style>
  <path d="M9.3 5a2.5 2.5 0 1 0 0-5 2.5 2.5 0 0 0 0 5Z" />
  <path
    d="M17.2 13h-4.3l-1.1-5.7c-.7-3-4.9-2-4.4.8l1.3 6.6c.2 1 1 1.9 2.3 1.9h5.4v6c0 1.9 2.6 1.9 2.6 0V15c0-1-.6-2-1.8-2Z" />
  <path
    d="M14.4 17h-3.6c-1.3 0-2.3-.7-2.7-2.1L7 9.2c-.3-1.4-2.2-.9-2 .4l1.2 6a4.5 4.5 0 0 0 4.3 3.5h4c1.3 0 1.3-2-.1-2V17Z" />

</svg>