<?xml version="1.0" standalone="no"?>
<!DOCTYPE svg PUBLIC "-//W3C//DTD SVG 1.1//EN" "http://www.w3.org/Graphics/SVG/1.1/DTD/svg11.dtd" >
<svg xmlns="http://www.w3.org/2000/svg">
<metadata></metadata>
<defs>
<font id="joystixmonospace" horiz-adv-x="1254" >
<font-face units-per-em="2048" ascent="1640" descent="-408" />
<missing-glyph horiz-adv-x="500" />
<glyph unicode="&#x28;C&#x29;" d="M172 155v754h149v-754h-149zM321 0v155h608v-155h-608zM321 909v154h608v-154h151v-754h-151v754h-608zM473 303v458h305v-155h-152v-150h152v-153h-305z" />
<glyph unicode="&#x28;R&#x29;" d="M172 155v754h149v-754h-149zM321 0v155h608v-155h-608zM321 909v154h608v-154h151v-754h-151v754h-608zM453 233v581h348v-232h-116v117h-115v-117h115v-118h116v-231h-116v231h-115v-231h-117z" />
<glyph horiz-adv-x="0" />
<glyph unicode="&#xd;" />
<glyph />
<glyph unicode=" " />
<glyph unicode="!" d="M249 0v155h150v-155h-150zM399 303v458h152v302h454v-302h-150v-155h-152v-150h-152v-153h-152z" />
<glyph unicode="&#x22;" d="M249 453v153h148v-153h-148zM249 761v302h301v-457h-153v155h-148zM703 453v153h149v-153h-149zM703 761v302h302v-457h-153v155h-149z" />
<glyph unicode="#" d="M249 306v150h148v153h-148v152h148v150h153v-150h152v150h151v-150h152v-152h-152v-153h152v-150h-152v-151h-151v151h-152v-151h-153v151h-148zM550 456h152v153h-152v-153z" />
<glyph unicode="$" d="M95 606v155h151v148h304v154h153v-154h302v-148h-455v-155h455v-150h153v-153h-153v-148h-302v-155h-153v155h-304v148h457v153h-457v150h-151z" />
<glyph unicode="%" d="M176 150v152h150v-152h-150zM198 764v302h279v-302h-279zM326 302v154h151v-154h-151zM477 456v153h149v-153h-149zM626 609v155h152v-155h-152zM778 764v153h151v-153h-151zM782 155v301h279v-301h-279zM929 917v155h148v-155h-148z" />
<glyph unicode="&#x26;" d="M97 155v301h300v-301h305v148h-152v151h153v-151h150v-148h-150v-155h-457v155h-149zM246 606v303h151v-303h-151zM399 456v150h151v-150h-151zM399 911v152h151v-152h153v-305h-153v305h-151zM853 0v152h305v-152h-305zM853 303v151h152v-151h-152z" />
<glyph unicode="'" d="M476 453v153h149v-153h-149zM476 761v302h302v-457h-153v155h-149z" />
<glyph unicode="(" d="M551 0v1063h153v152h302v-152h-150v-1063h150v-155h-302v155h-153z" />
<glyph unicode=")" d="M249 0h150v1063h-150v152h301v-152h153v-1063h-153v-155h-301v155z" />
<glyph unicode="*" d="M97 456v150h302v155h152v302h152v-302h150v-155h305v-150h-305v-153h-150v-303h-152v303h-152v153h-302zM247 153v150h150v-150h-150zM247 759v150h150v-150h-150zM855 153v150h151v-150h-151zM855 759v150h151v-150h-151z" />
<glyph unicode="+" d="M172 456v150h304v303h302v-303h302v-150h-302v-301h-302v301h-304z" />
<glyph unicode="," d="M476 0v155h149v-155h-149zM476 308v301h302v-454h-153v153h-149z" />
<glyph unicode="-" d="M247 456v153h759v-153h-759z" />
<glyph unicode="." d="M476 0v303h302v-303h-302z" />
<glyph unicode="/" d="M100 0v155h152v-155h-152zM252 155v153h150v-153h-150zM402 308v154h149v-154h-149zM551 462v151h152v-151h-152zM703 613v155h149v-155h-149zM852 768v153h151v-153h-151zM1003 921v155h151v-155h-151z" />
<glyph unicode="0" d="M97 303v458h150v148h153v-606h151v-148h302v-155h-453v155h-153v148h-150zM400 909v154h453v-154h153v-148h152v-458h-152v-148h-153v606h-149v148h-304z" />
<glyph unicode="1" d="M172 0v155h304v606h-153v150h153v152h303v-908h301v-155h-908z" />
<glyph unicode="2" d="M97 0v303h150v153h152v150h304v155h152v148h-456v-148h-302v148h150v154h759v-154h152v-303h-152v-150h-151v-153h-304v-148h607v-155h-1061z" />
<glyph unicode="3" d="M97 155v148h302v-148h454v301h-454v150h152v155h152v148h-457v154h912v-154h-153v-148h-152v-155h152v-150h153v-301h-153v-155h-759v155h-149z" />
<glyph unicode="4" d="M97 303v303h150v155h152v148h152v154h455v-607h152v-153h-152v-303h-303v303h-606zM399 456h304v305h-152v-155h-152v-150z" />
<glyph unicode="5" d="M95 155v148h304v-148h453v451h-757v457h910v-154h-606v-148h606v-155h153v-451h-153v-155h-759v155h-151z" />
<glyph unicode="6" d="M97 155v604h150v152h153v152h606v-152h-455v-150h-151v-155h606v-150h152v-301h-152v-155h-759v155h-150zM400 155h453v301h-453v-301z" />
<glyph unicode="7" d="M97 761v302h1061v-302h-153v-155h-152v-150h-150v-456h-304v456h152v150h152v155h150v148h-454v-148h-302z" />
<glyph unicode="8" d="M97 155v301h150v150h-150v303h150v154h606v-154h153v-303h-153v303h-454v-148h152v-155h302v-150h305v-301h-152v-155h-759v155h-150zM247 155h606v148h-302v153h-304v-301z" />
<glyph unicode="9" d="M97 606v303h152v154h757v-154h152v-606h-152v-151h-151v-152h-606v152h454v150h152v154h-606v150h-152zM400 606h455v303h-455v-303z" />
<glyph unicode=":" d="M476 302v304h303v-304h-303zM476 759v304h303v-304h-303z" />
<glyph unicode=";" d="M476 0v155h149v-155h-149zM476 308v301h302v-454h-153v153h-149zM476 759v304h303v-304h-303z" />
<glyph unicode="&#x3c;" d="M247 456v150h152v155h152v148h152v154h303v-154h-153v-148h-150v-155h-152v-150h152v-153h150v-148h153v-155h-303v155h-152v148h-152v153h-152z" />
<glyph unicode="=" d="M172 302v154h908v-154h-908zM172 609v155h908v-155h-908z" />
<glyph unicode="&#x3e;" d="M247 0v155h152v148h152v153h152v150h-152v155h-152v148h-152v154h304v-154h152v-148h150v-155h153v-150h-153v-153h-150v-148h-152v-155h-304z" />
<glyph unicode="?" d="M97 761v148h150v154h759v-154h152v-326h-305v-127h-150v-153h-152v303h152v155h150v148h-454v-148h-302zM551 0v155h152v-155h-152z" />
<glyph unicode="@" d="M97 155v754h150v154h761v-154h150v-449h-150v-155h-454v453h299v151h-454v-754h607v-155h-759v155h-150zM703 460h150v146h-150v-146z" />
<glyph unicode="A" d="M97 0v761h150v148h152v154h454v-154h153v-148h152v-761h-305v303h-442v-303h-314zM411 456h442v305h-149v148h-153v-148h-140v-305z" />
<glyph unicode="B" d="M97 0v1063h909v-154h152v-303h-152v-127h152v-324h-152v-155h-909zM399 155h454v324h-454v-324zM399 606h454v303h-454v-303z" />
<glyph unicode="C" d="M97 303v458h150v148h153v154h606v-154h152v-148h-305v148h-302v-148h-151v-458h151v-148h302v148h305v-148h-152v-155h-606v155h-153v148h-150z" />
<glyph unicode="D" d="M97 0v1063h756v-154h153v-148h152v-458h-152v-148h-153v-155h-756zM399 155h304v148h150v458h-150v148h-304v-754z" />
<glyph unicode="E" d="M97 0v1063h1061v-154h-759v-303h607v-150h-607v-301h759v-155h-1061z" />
<glyph unicode="F" d="M97 0v1063h1061v-154h-759v-303h607v-150h-607v-456h-302z" />
<glyph unicode="G" d="M97 303v458h150v148h153v154h758v-154h-607v-148h-151v-458h151v-148h302v301h-149v150h454v-606h-758v155h-153v148h-150z" />
<glyph unicode="H" d="M97 0v1063h302v-457h454v457h305v-1063h-305v456h-454v-456h-302z" />
<glyph unicode="I" d="M165 0v155h303v754h-303v154h925v-154h-319v-754h303v-155h-909z" />
<glyph unicode="J" d="M97 155v148h302v-148h454v908h305v-908h-153v-155h-759v155h-149z" />
<glyph unicode="K" d="M97 0v1063h302v-457h152v155h152v148h150v154h305v-154h-152v-148h-153v-155h-150v-150h150v-153h153v-148h152v-155h-455v155h-152v148h-152v-303h-302z" />
<glyph unicode="L" d="M97 0v1063h302v-908h759v-155h-1061z" />
<glyph unicode="M" d="M97 0v1063h302v-154h152v-148h152v148h150v154h305v-1063h-305v456h-150v-150h-152v150h-152v-456h-302z" />
<glyph unicode="N" d="M97 0v1063h302v-154h152v-148h152v-155h150v457h305v-1063h-305v155h-150v148h-152v153h-152v-456h-302z" />
<glyph unicode="O" d="M97 155v754h150v154h759v-154h152v-754h-152v-155h-759v155h-150zM399 155h454v754h-454v-754z" />
<glyph unicode="P" d="M97 0v1063h909v-154h152v-453h-152v-153h-607v-303h-302zM399 456h454v453h-454v-453z" />
<glyph unicode="Q" d="M97 155v754h150v154h759v-154h152v-606h-152v-148h152v-155h-152v155h-153v-155h-606v155h-150zM399 155h304v148h-152v153h302v453h-454v-754z" />
<glyph unicode="R" d="M97 0v1063h909v-154h152v-453h-305v-153h153v-148h152v-155h-455v155h-152v148h-152v-303h-302zM399 456h304v150h150v303h-454v-453z" />
<glyph unicode="S" d="M97 155v148h302v-148h454v301h-607v150h-149v303h149v154h607v-154h152v-148h-302v148h-304v-303h606v-150h153v-301h-153v-155h-759v155h-149z" />
<glyph unicode="T" d="M171 909v154h911v-154h-303v-909h-303v909h-305z" />
<glyph unicode="U" d="M97 155v908h302v-908h454v908h305v-908h-152v-155h-759v155h-150z" />
<glyph unicode="V" d="M97 456v607h302v-457h152v-150h153v150h149v457h305v-607h-152v-153h-153v-148h-149v-155h-153v155h-152v148h-152v153h-150z" />
<glyph unicode="W" d="M97 0v1063h302v-457h152v155h152v-155h150v457h305v-1063h-305v155h-150v148h-152v-148h-152v-155h-302z" />
<glyph unicode="X" d="M95 0v303h151v153h153v150h-153v155h-151v302h304v-154h151v-148h153v148h149v154h306v-302h-153v-155h-153v-150h153v-153h153v-303h-306v155h-149v148h-153v-148h-151v-155h-304z" />
<glyph unicode="Y" d="M172 606v457h302v-457h305v457h303v-457h-152v-150h-151v-456h-305v456h-151v150h-151z" />
<glyph unicode="Z" d="M97 0v303h150v153h152v150h152v155h152v148h-606v154h1061v-302h-153v-155h-150v-150h-152v-153h-152v-148h607v-155h-1061z" />
<glyph unicode="[" d="M476 -155v1370h606v-152h-304v-1063h304v-155h-606z" />
<glyph unicode="\" d="M100 909v154h152v-154h150v-154h149v-155h152v-152h149v-154h151v-153h151v-154h-151v154h-151v153h-149v154h-152v152h-149v155h-150v154h-152z" />
<glyph unicode="]" d="M172 0h305v1063h-305v152h607v-1370h-607v155z" />
<glyph unicode="^" d="M247 606v155h153v148h154v154h150v-154h151v-148h151v-155h-302v155h-150v-155h-307z" />
<glyph unicode="_" d="M97 0h1061v-155h-1061v155z" />
<glyph unicode="`" d="M400 1361v153h304v-153h151v-149h-301v149h-154z" />
<glyph unicode="a" d="M97 0v761h150v148h152v154h454v-154h153v-148h152v-761h-305v303h-442v-303h-314zM411 456h442v305h-149v148h-153v-148h-140v-305z" />
<glyph unicode="b" d="M97 0v1063h909v-154h152v-303h-152v-127h152v-324h-152v-155h-909zM399 155h454v324h-454v-324zM399 606h454v303h-454v-303z" />
<glyph unicode="c" d="M97 303v458h150v148h153v154h606v-154h152v-148h-305v148h-302v-148h-151v-458h151v-148h302v148h305v-148h-152v-155h-606v155h-153v148h-150z" />
<glyph unicode="d" d="M97 0v1063h756v-154h153v-148h152v-458h-152v-148h-153v-155h-756zM399 155h304v148h150v458h-150v148h-304v-754z" />
<glyph unicode="e" d="M97 0v1063h1061v-154h-759v-303h607v-150h-607v-301h759v-155h-1061z" />
<glyph unicode="f" d="M97 0v1063h1061v-154h-759v-303h607v-150h-607v-456h-302z" />
<glyph unicode="g" d="M97 303v458h150v148h153v154h758v-154h-607v-148h-151v-458h151v-148h302v301h-149v150h454v-606h-758v155h-153v148h-150z" />
<glyph unicode="h" d="M97 0v1063h302v-457h454v457h305v-1063h-305v456h-454v-456h-302z" />
<glyph unicode="i" d="M165 0v155h303v754h-303v154h925v-154h-319v-754h303v-155h-909z" />
<glyph unicode="j" d="M97 155v148h302v-148h454v908h305v-908h-153v-155h-759v155h-149z" />
<glyph unicode="k" d="M97 0v1063h302v-457h152v155h152v148h150v154h305v-154h-152v-148h-153v-155h-150v-150h150v-153h153v-148h152v-155h-455v155h-152v148h-152v-303h-302z" />
<glyph unicode="l" d="M96 0v1063h302v-908h759v-155h-1061z" />
<glyph unicode="m" d="M97 0v1063h302v-154h152v-148h152v148h150v154h305v-1063h-305v456h-150v-150h-152v150h-152v-456h-302z" />
<glyph unicode="n" d="M97 0v1063h302v-154h152v-148h152v-155h150v457h305v-1063h-305v155h-150v148h-152v153h-152v-456h-302z" />
<glyph unicode="o" d="M97 155v754h150v154h759v-154h152v-754h-152v-155h-759v155h-150zM399 155h454v754h-454v-754z" />
<glyph unicode="p" d="M97 0v1063h909v-154h152v-453h-152v-153h-607v-303h-302zM399 456h454v453h-454v-453z" />
<glyph unicode="q" d="M97 155v754h150v154h759v-154h152v-606h-152v-148h152v-155h-152v155h-153v-155h-606v155h-150zM399 155h304v148h-152v153h302v453h-454v-754z" />
<glyph unicode="r" d="M97 0v1063h909v-154h152v-453h-305v-153h153v-148h152v-155h-455v155h-152v148h-152v-303h-302zM399 456h304v150h150v303h-454v-453z" />
<glyph unicode="s" d="M97 155v148h302v-148h454v301h-607v150h-149v303h149v154h607v-154h152v-148h-302v148h-304v-303h606v-150h153v-301h-153v-155h-759v155h-149z" />
<glyph unicode="t" d="M171 909v154h911v-154h-303v-909h-303v909h-305z" />
<glyph unicode="u" d="M97 155v908h302v-908h454v908h305v-908h-152v-155h-759v155h-150z" />
<glyph unicode="v" d="M97 456v607h302v-457h152v-150h153v150h149v457h305v-607h-152v-153h-153v-148h-149v-155h-153v155h-152v148h-152v153h-150z" />
<glyph unicode="w" d="M97 0v1063h302v-457h152v155h152v-155h150v457h305v-1063h-305v155h-150v148h-152v-148h-152v-155h-302z" />
<glyph unicode="x" d="M95 0v303h151v153h153v150h-153v155h-151v302h304v-154h151v-148h153v148h149v154h306v-302h-153v-155h-153v-150h153v-153h153v-303h-306v155h-149v148h-153v-148h-151v-155h-304z" />
<glyph unicode="y" d="M172 606v457h302v-457h305v457h303v-457h-152v-150h-151v-456h-305v456h-151v150h-151z" />
<glyph unicode="z" d="M97 0v303h150v153h152v150h152v155h152v148h-606v154h1061v-302h-153v-155h-150v-150h-152v-153h-152v-148h607v-155h-1061z" />
<glyph unicode="{" d="M474 456v153h154v454h151v152h303v-152h-150v-454h-154v-153h154v-456h150v-155h-303v155h-151v456h-154z" />
<glyph unicode="|" d="M476 -155v1370h302v-1370h-302z" />
<glyph unicode="}" d="M171 0h150v456h153v153h-153v454h-150v152h302v-152h153v-454h153v-153h-153v-456h-153v-155h-302v155z" />
<glyph unicode="~" d="M172 305v149h152v-149h-152zM324 454v152h304v-152h302v-149h-302v149h-304zM932 456v150h148v-150h-148z" />
<glyph unicode="&#xa0;" />
<glyph unicode="&#xa1;" d="M249 0v302h150v154h151v150h153v153h150v-457h-150v-302h-454zM853 909v154h152v-154h-152z" />
<glyph unicode="&#xa2;" d="M191 326v421h152v151h309v165h146v-165h265v-151h-265v-421h265v-155h-265v-168h-146v168h-309v155h-152zM343 476h153v-150h156v421h-156v-150h-153v-121z" />
<glyph unicode="&#xa3;" d="M172 0v153h154v303h-154v150h154v302h153v155h453v-155h150v-149h-303v149h-153v-302h153v-150h-153v-303h456v-153h-910z" />
<glyph unicode="&#xa4;" d="M246 155v301h151v150h-151v303h151v-148h459v148h152v-303h-152v-150h152v-301h-152v148h-459v-148h-151zM550 456h153v150h-153v-150z" />
<glyph unicode="&#xa5;" d="M172 724v339h302v-339h305v339h303v-339h-153v-142h-150v-105h303v-131h-303v-105h303v-132h-303v-109h-305v109h-299v132h299v105h-299v131h299v105h-151v142h-151z" />
<glyph unicode="&#xa6;" d="M476 -155v543h302v-543h-302zM476 671v544h302v-544h-302z" />
<glyph unicode="&#xa7;" d="M185 -7h252v-131h378v265h-506v132h-124v267h124v135h-124v266h124v136h506v-136h126v-130h-251v130h-253v-266h504v-135h128v-267h-128v-132h128v-265h-128v-137h-632v137h-124v131zM437 259h378v137h-125v130h-253v-267z" />
<glyph unicode="&#xa8;" d="M247 1212v302h304v-302h-304zM702 1212v302h304v-302h-304z" />
<glyph unicode="&#xaa;" d="M334 473v425h80v81h80v84h262v-84h84v-81h81v-425h-182v162h-221v-162h-184zM518 736h221v146h-80v79h-63v-79h-78v-146z" />
<glyph unicode="&#xab;" d="M98 456v150h152v155h304v-155h-151v-150h151v-153h-304v153h-152zM702 456v150h153v155h302v-155h-151v-150h151v-153h-302v153h-153z" />
<glyph unicode="&#xac;" d="M172 456v150h908v-606h-301v456h-607z" />
<glyph unicode="&#xad;" d="M247 456v153h759v-153h-759z" />
<glyph unicode="&#xaf;" d="M400 1212v149h455v-149h-455z" />
<glyph unicode="&#xb0;" d="M249 765v298h150v152h456v-152h150v-298h-150v-153h-456v153h-150zM550 765h153v298h-153v-298z" />
<glyph unicode="&#xb1;" d="M172 0h908v-153h-908v153zM172 456v150h304v303h302v-303h302v-150h-302v-301h-302v301h-304z" />
<glyph unicode="&#xb2;" d="M334 473v181h81v82h81v81h163v82h82v62h-227v-79h-180v97h81v84h425v-84h81v-180h-81v-80h-82v-84h-162v-62h325v-100h-587z" />
<glyph unicode="&#xb3;" d="M334 557v97h178v-81h227v146h-243v98h81v82h82v62h-247v102h509v-102h-83v-79h-82v-65h82v-81h83v-179h-83v-84h-426v84h-78z" />
<glyph unicode="&#xb4;" d="M400 1212v149h150v153h305v-153h-153v-149h-302z" />
<glyph unicode="&#xb6;" d="M139 456v453h119v154h856v-1365h-235v1211h-138v-1211h-233v605h-250v153h-119zM376 456h132v453h-132v-453z" />
<glyph unicode="&#xb7;" d="M476 380v305h303v-305h-303z" />
<glyph unicode="&#xb8;" d="M400 -153h150v153h305v-153h-153v-149h-302v149z" />
<glyph unicode="&#xb9;" d="M374 473v100h162v309h-82v99h82v82h181v-490h164v-100h-507z" />
<glyph unicode="&#xba;" d="M334 556v423h81v84h425v-84h81v-423h-81v-83h-425v83h-81zM514 573h227v388h-227v-388z" />
<glyph unicode="&#xbb;" d="M98 303v153h151v150h-151v155h304v-155h152v-150h-152v-153h-304zM702 303v153h151v150h-151v155h301v-155h154v-150h-154v-153h-301z" />
<glyph unicode="&#xbc;" d="M92 473v100h105v309h-53v98h53v83h115v-490h105v-100h-325zM270 -4v154h94v-154h-94zM364 150v152h97v-152h-97zM461 302v154h97v-154h-97zM558 456v153h95v-153h-95zM653 609v155h97v-155h-97zM750 764v153h96v-153h-96zM787 162v182h49v82h53v80h52v84h168v-327h54 v-101h-54v-162h-115v162h-207zM846 917v155h97v-155h-97zM901 263h93v146h-41v-83h-52v-63z" />
<glyph unicode="&#xbd;" d="M88 473v100h104v309h-53v98h53v83h116v-490h104v-100h-324zM265 -4v154h94v-154h-94zM359 150v152h97v-152h-97zM456 302v154h98v-154h-98zM554 456v153h95v-153h-95zM649 609v155h97v-155h-97zM746 764v153h95v-153h-95zM791 0v181h52v82h51v81h105v82h53v62h-146v-79 h-115v97h52v84h271v-84h53v-180h-53v-80h-51v-84h-105v-62h209v-100h-376zM841 917v155h97v-155h-97z" />
<glyph unicode="&#xbe;" d="M64 556v97h115v-80h145v146h-158v98h54v81h52v63h-158v102h326v-102h-54v-79h-52v-65h52v-81h54v-180h-54v-83h-272v83h-50zM297 -4v154h94v-154h-94zM391 150v152h97v-152h-97zM488 302v154h97v-154h-97zM585 456v153h97v-153h-97zM682 609v155h97v-155h-97zM779 764 v153h94v-153h-94zM814 162v182h50v82h53v80h52v84h168v-327h53v-101h-53v-162h-116v162h-207zM873 917v155h97v-155h-97zM927 263h94v146h-41v-83h-53v-63z" />
<glyph unicode="&#xbf;" d="M97 153v326h303v127h151v153h152v-303h-152v-154h-151v-149h455v149h303v-149h-152v-153h-757v153h-152zM551 909v154h152v-154h-152z" />
<glyph unicode="&#xc0;" d="M97 0v761h150v148h152v154h454v-154h153v-148h152v-761h-305v303h-442v-303h-314zM312 1361v153h304v-153h151v-149h-301v149h-154zM411 456h442v305h-149v148h-153v-148h-140v-305z" />
<glyph unicode="&#xc1;" d="M97 0v761h150v148h152v154h454v-154h153v-148h152v-761h-305v303h-442v-303h-314zM411 456h442v305h-149v148h-153v-148h-140v-305zM462 1212v149h150v153h305v-153h-153v-149h-302z" />
<glyph unicode="&#xc2;" d="M97 0v761h150v148h152v154h454v-154h153v-148h152v-761h-305v303h-442v-303h-314zM250 1212v149h150v153h456v-153h150v-149h-302v149h-153v-149h-301zM411 456h442v305h-149v148h-153v-148h-140v-305z" />
<glyph unicode="&#xc3;" d="M97 0v761h150v148h152v154h454v-154h153v-148h152v-761h-305v303h-442v-303h-314zM325 1212v149h153v153h152v-153h-152v-149h-153zM411 456h442v305h-149v148h-153v-148h-140v-305zM630 1212v149h150v153h151v-153h-151v-149h-150z" />
<glyph unicode="&#xc4;" d="M97 0v761h150v148h152v154h454v-154h153v-148h152v-761h-305v303h-442v-303h-314zM248 1212v302h304v-302h-304zM411 456h442v305h-149v148h-153v-148h-140v-305zM703 1212v302h304v-302h-304z" />
<glyph unicode="&#xc5;" d="M97 0v761h150v148h152v608h454v-608h153v-148h152v-761h-305v303h-442v-303h-314zM411 456h442v305h-149v148h-153v-148h-140v-305zM554 1215h150v149h-150v-149z" />
<glyph unicode="&#xc6;" d="M56 0v761h152v148h151v154h872v-154h-294v-303h233v-150h-233v-301h294v-155h-598v303h-262v-303h-315zM371 456h262v453h-121v-148h-141v-305z" />
<glyph unicode="&#xc7;" d="M97 303v458h150v148h153v154h606v-154h152v-148h-305v148h-302v-148h-151v-458h151v-148h302v148h305v-148h-152v-155h-157v-153h-153v-149h-302v149h150v153h-144v155h-153v148h-150z" />
<glyph unicode="&#xc8;" d="M97 0v1063h1061v-154h-759v-303h607v-150h-607v-301h759v-155h-1061zM356 1361v153h304v-153h151v-149h-301v149h-154z" />
<glyph unicode="&#xc9;" d="M97 0v1063h1061v-154h-759v-303h607v-150h-607v-301h759v-155h-1061zM444 1212v149h150v153h305v-153h-153v-149h-302z" />
<glyph unicode="&#xca;" d="M97 0v1063h1061v-154h-759v-303h607v-150h-607v-301h759v-155h-1061zM267 1212v149h150v153h456v-153h150v-149h-302v149h-153v-149h-301z" />
<glyph unicode="&#xcb;" d="M97 0v1063h1061v-154h-759v-303h607v-150h-607v-301h759v-155h-1061zM234 1212v302h304v-302h-304zM689 1212v302h304v-302h-304z" />
<glyph unicode="&#xcc;" d="M165 0v155h303v754h-303v154h925v-154h-319v-754h303v-155h-909zM332 1361v153h304v-153h151v-149h-301v149h-154z" />
<glyph unicode="&#xcd;" d="M165 0v155h303v754h-303v154h925v-154h-319v-754h303v-155h-909zM477 1212v149h150v153h305v-153h-153v-149h-302z" />
<glyph unicode="&#xce;" d="M165 0v155h303v754h-303v154h925v-154h-319v-754h303v-155h-909zM250 1212v149h150v153h456v-153h150v-149h-302v149h-153v-149h-301z" />
<glyph unicode="&#xcf;" d="M165 0v155h303v754h-303v154h925v-154h-319v-754h303v-155h-909zM248 1212v302h304v-302h-304zM703 1212v302h304v-302h-304z" />
<glyph unicode="&#xd0;" d="M21 454v154h91v455h757v-154h151v-148h153v-458h-153v-148h-151v-155h-757v454h-91zM414 155h305v148h150v458h-150v148h-305v-301h147v-154h-147v-299z" />
<glyph unicode="&#xd1;" d="M97 0v1063h302v-154h152v-148h152v-155h150v457h305v-1063h-305v155h-150v148h-152v153h-152v-456h-302zM324 1212v149h153v153h152v-153h-152v-149h-153zM629 1212v149h150v153h151v-153h-151v-149h-150z" />
<glyph unicode="&#xd2;" d="M97 155v754h150v154h759v-154h152v-754h-152v-155h-759v155h-150zM341 1361v153h304v-153h151v-149h-301v149h-154zM399 155h454v754h-454v-754z" />
<glyph unicode="&#xd3;" d="M97 155v754h150v154h759v-154h152v-754h-152v-155h-759v155h-150zM399 155h454v754h-454v-754zM461 1212v149h150v153h305v-153h-153v-149h-302z" />
<glyph unicode="&#xd4;" d="M97 155v754h150v154h759v-154h152v-754h-152v-155h-759v155h-150zM249 1212v149h150v153h456v-153h150v-149h-302v149h-153v-149h-301zM399 155h454v754h-454v-754z" />
<glyph unicode="&#xd5;" d="M97 155v754h150v154h759v-154h152v-754h-152v-155h-759v155h-150zM324 1212v149h153v153h152v-153h-152v-149h-153zM399 155h454v754h-454v-754zM629 1212v149h150v153h151v-153h-151v-149h-150z" />
<glyph unicode="&#xd6;" d="M97 155v754h150v154h759v-154h152v-754h-152v-155h-759v155h-150zM247 1212v302h304v-302h-304zM399 155h454v754h-454v-754zM702 1212v302h304v-302h-304z" />
<glyph unicode="&#xd7;" d="M246 155v301h151v150h-151v303h151v-148h153v-155h153v155h153v148h152v-303h-152v-150h152v-301h-152v148h-153v153h-153v-153h-153v-148h-151z" />
<glyph unicode="&#xd8;" d="M97 155v754h150v154h759v-154h152v-754h-152v-155h-759v155h-150zM399 155h454v754h-454v-754zM405 300v151h149v-151h-149zM554 451v149h149v-149h-149zM703 600v152h147v-152h-147z" />
<glyph unicode="&#xd9;" d="M97 155v908h302v-908h454v908h305v-908h-152v-155h-759v155h-150zM341 1361v153h304v-153h151v-149h-301v149h-154z" />
<glyph unicode="&#xda;" d="M97 155v908h302v-908h454v908h305v-908h-152v-155h-759v155h-150zM461 1212v149h150v153h305v-153h-153v-149h-302z" />
<glyph unicode="&#xdb;" d="M97 155v908h302v-908h454v908h305v-908h-152v-155h-759v155h-150zM249 1212v149h150v153h456v-153h150v-149h-302v149h-153v-149h-301z" />
<glyph unicode="&#xdc;" d="M97 155v908h302v-908h454v908h305v-908h-152v-155h-759v155h-150zM247 1212v302h304v-302h-304zM702 1212v302h304v-302h-304z" />
<glyph unicode="&#xdd;" d="M172 606v457h302v-457h305v457h303v-457h-152v-150h-151v-456h-305v456h-151v150h-151zM473 1212v149h150v153h305v-153h-153v-149h-302z" />
<glyph unicode="&#xde;" d="M97 0v1063h302v-216h607v-151h152v-304h-152v-152h-607v-240h-302zM399 392h454v304h-454v-304z" />
<glyph unicode="&#xdf;" d="M-508 155v148h302v-148h454v301h-607v150h-149v303h149v154h607v-154h152v-148h-302v148h-304v-303h606v-150h153v-301h-153v-155h-759v155h-149zM703 155v148h302v-148h454v301h-607v150h-149v303h149v154h607v-154h152v-148h-302v148h-304v-303h606v-150h153v-301h-153 v-155h-759v155h-149z" />
<glyph unicode="&#xe0;" d="M97 0v761h150v148h152v154h454v-154h153v-148h152v-761h-305v303h-442v-303h-314zM312 1361v153h304v-153h151v-149h-301v149h-154zM411 456h442v305h-149v148h-153v-148h-140v-305z" />
<glyph unicode="&#xe1;" d="M97 0v761h150v148h152v154h454v-154h153v-148h152v-761h-305v303h-442v-303h-314zM411 456h442v305h-149v148h-153v-148h-140v-305zM462 1212v149h150v153h305v-153h-153v-149h-302z" />
<glyph unicode="&#xe2;" d="M97 0v761h150v148h152v154h454v-154h153v-148h152v-761h-305v303h-442v-303h-314zM250 1212v149h150v153h456v-153h150v-149h-302v149h-153v-149h-301zM411 456h442v305h-149v148h-153v-148h-140v-305z" />
<glyph unicode="&#xe3;" d="M97 0v761h150v148h152v154h454v-154h153v-148h152v-761h-305v303h-442v-303h-314zM325 1212v149h153v153h152v-153h-152v-149h-153zM411 456h442v305h-149v148h-153v-148h-140v-305zM630 1212v149h150v153h151v-153h-151v-149h-150z" />
<glyph unicode="&#xe4;" d="M97 0v761h150v148h152v154h454v-154h153v-148h152v-761h-305v303h-442v-303h-314zM248 1212v302h304v-302h-304zM411 456h442v305h-149v148h-153v-148h-140v-305zM703 1212v302h304v-302h-304z" />
<glyph unicode="&#xe5;" d="M97 0v761h150v148h152v608h454v-608h153v-148h152v-761h-305v303h-442v-303h-314zM411 456h442v305h-149v148h-153v-148h-140v-305zM554 1215h150v149h-150v-149z" />
<glyph unicode="&#xe6;" d="M56 0v761h152v148h151v154h872v-154h-294v-303h233v-150h-233v-301h294v-155h-598v303h-262v-303h-315zM371 456h262v453h-121v-148h-141v-305z" />
<glyph unicode="&#xe7;" d="M97 303v458h150v148h153v154h606v-154h152v-148h-305v148h-302v-148h-151v-458h151v-148h302v148h305v-148h-152v-155h-157v-153h-153v-149h-302v149h150v153h-144v155h-153v148h-150z" />
<glyph unicode="&#xe8;" d="M97 0v1063h1061v-154h-759v-303h607v-150h-607v-301h759v-155h-1061zM356 1361v153h304v-153h151v-149h-301v149h-154z" />
<glyph unicode="&#xe9;" d="M97 0v1063h1061v-154h-759v-303h607v-150h-607v-301h759v-155h-1061zM444 1212v149h150v153h305v-153h-153v-149h-302z" />
<glyph unicode="&#xea;" d="M97 0v1063h1061v-154h-759v-303h607v-150h-607v-301h759v-155h-1061zM267 1212v149h150v153h456v-153h150v-149h-302v149h-153v-149h-301z" />
<glyph unicode="&#xeb;" d="M97 0v1063h1061v-154h-759v-303h607v-150h-607v-301h759v-155h-1061zM234 1212v302h304v-302h-304zM689 1212v302h304v-302h-304z" />
<glyph unicode="&#xec;" d="M165 0v155h303v754h-303v154h925v-154h-319v-754h303v-155h-909zM332 1361v153h304v-153h151v-149h-301v149h-154z" />
<glyph unicode="&#xed;" d="M165 0v155h303v754h-303v154h925v-154h-319v-754h303v-155h-909zM477 1212v149h150v153h305v-153h-153v-149h-302z" />
<glyph unicode="&#xee;" d="M165 0v155h303v754h-303v154h925v-154h-319v-754h303v-155h-909zM250 1212v149h150v153h456v-153h150v-149h-302v149h-153v-149h-301z" />
<glyph unicode="&#xef;" d="M165 0v155h303v754h-303v154h925v-154h-319v-754h303v-155h-909zM248 1212v302h304v-302h-304zM703 1212v302h304v-302h-304z" />
<glyph unicode="&#xf0;" d="M21 454v154h91v455h757v-154h151v-148h153v-458h-153v-148h-151v-155h-757v454h-91zM414 155h305v148h150v458h-150v148h-305v-301h147v-154h-147v-299z" />
<glyph unicode="&#xf1;" d="M97 0v1063h302v-154h152v-148h152v-155h150v457h305v-1063h-305v155h-150v148h-152v153h-152v-456h-302zM324 1212v149h153v153h152v-153h-152v-149h-153zM629 1212v149h150v153h151v-153h-151v-149h-150z" />
<glyph unicode="&#xf2;" d="M97 155v754h150v154h759v-154h152v-754h-152v-155h-759v155h-150zM341 1361v153h304v-153h151v-149h-301v149h-154zM399 155h454v754h-454v-754z" />
<glyph unicode="&#xf3;" d="M97 155v754h150v154h759v-154h152v-754h-152v-155h-759v155h-150zM399 155h454v754h-454v-754zM461 1212v149h150v153h305v-153h-153v-149h-302z" />
<glyph unicode="&#xf4;" d="M97 155v754h150v154h759v-154h152v-754h-152v-155h-759v155h-150zM249 1212v149h150v153h456v-153h150v-149h-302v149h-153v-149h-301zM399 155h454v754h-454v-754z" />
<glyph unicode="&#xf5;" d="M97 155v754h150v154h759v-154h152v-754h-152v-155h-759v155h-150zM324 1212v149h153v153h152v-153h-152v-149h-153zM399 155h454v754h-454v-754zM629 1212v149h150v153h151v-153h-151v-149h-150z" />
<glyph unicode="&#xf6;" d="M97 155v754h150v154h759v-154h152v-754h-152v-155h-759v155h-150zM247 1212v302h304v-302h-304zM399 155h454v754h-454v-754zM702 1212v302h304v-302h-304z" />
<glyph unicode="&#xf7;" d="M172 456v150h908v-150h-908zM476 155v150h302v-150h-302zM476 756v153h302v-153h-302z" />
<glyph unicode="&#xf8;" d="M97 155v754h150v154h759v-154h152v-754h-152v-155h-759v155h-150zM399 155h454v754h-454v-754zM405 300v151h149v-151h-149zM554 451v149h149v-149h-149zM703 600v152h147v-152h-147z" />
<glyph unicode="&#xf9;" d="M97 155v908h302v-908h454v908h305v-908h-152v-155h-759v155h-150zM341 1361v153h304v-153h151v-149h-301v149h-154z" />
<glyph unicode="&#xfa;" d="M97 155v908h302v-908h454v908h305v-908h-152v-155h-759v155h-150zM461 1212v149h150v153h305v-153h-153v-149h-302z" />
<glyph unicode="&#xfb;" d="M97 155v908h302v-908h454v908h305v-908h-152v-155h-759v155h-150zM249 1212v149h150v153h456v-153h150v-149h-302v149h-153v-149h-301z" />
<glyph unicode="&#xfc;" d="M97 155v908h302v-908h454v908h305v-908h-152v-155h-759v155h-150zM247 1212v302h304v-302h-304zM702 1212v302h304v-302h-304z" />
<glyph unicode="&#xfd;" d="M172 606v457h302v-457h305v457h303v-457h-152v-150h-151v-456h-305v456h-151v150h-151zM473 1212v149h150v153h305v-153h-153v-149h-302z" />
<glyph unicode="&#xfe;" d="M97 0v1063h302v-216h607v-151h152v-304h-152v-152h-607v-240h-302zM399 392h454v304h-454v-304z" />
<glyph unicode="&#xff;" d="M172 606v457h302v-457h305v457h303v-457h-152v-150h-151v-456h-305v456h-151v150h-151zM247 1212v302h304v-302h-304zM702 1212v302h304v-302h-304z" />
<glyph unicode="&#x152;" d="M12 155v754h152v154h1056v-154h-379v-303h303v-150h-303v-301h379v-155h-1056v155h-152zM315 155h221v754h-221v-754z" />
<glyph unicode="&#x153;" d="M12 155v754h152v154h1056v-154h-379v-303h303v-150h-303v-301h379v-155h-1056v155h-152zM315 155h221v754h-221v-754z" />
<glyph unicode="&#x178;" d="M172 606v457h302v-457h305v457h303v-457h-152v-150h-151v-456h-305v456h-151v150h-151zM247 1212v302h304v-302h-304zM702 1212v302h304v-302h-304z" />
<glyph unicode="&#x2c6;" d="M249 1212v149h150v153h456v-153h150v-149h-302v149h-153v-149h-301z" />
<glyph unicode="&#x2dc;" d="M324 1212v149h153v153h152v-153h-152v-149h-153zM629 1212v149h150v153h151v-153h-151v-149h-150z" />
<glyph unicode="&#x2000;" horiz-adv-x="758" />
<glyph unicode="&#x2001;" horiz-adv-x="1517" />
<glyph unicode="&#x2002;" horiz-adv-x="758" />
<glyph unicode="&#x2003;" horiz-adv-x="1517" />
<glyph unicode="&#x2004;" horiz-adv-x="505" />
<glyph unicode="&#x2005;" horiz-adv-x="379" />
<glyph unicode="&#x2006;" horiz-adv-x="252" />
<glyph unicode="&#x2007;" horiz-adv-x="252" />
<glyph unicode="&#x2008;" horiz-adv-x="189" />
<glyph unicode="&#x2009;" horiz-adv-x="303" />
<glyph unicode="&#x200a;" horiz-adv-x="84" />
<glyph unicode="&#x2010;" d="M247 456v153h759v-153h-759z" />
<glyph unicode="&#x2011;" d="M247 456v153h759v-153h-759z" />
<glyph unicode="&#x2012;" d="M247 456v153h759v-153h-759z" />
<glyph unicode="&#x2013;" d="M56 456v153h1143v-153h-1143z" />
<glyph unicode="&#x2014;" d="M0 456v153h1255v-153h-1255z" />
<glyph unicode="&#x2018;" d="M476 739v458h152v-153h151v-305h-303zM628 1197v153h151v-153h-151z" />
<glyph unicode="&#x2019;" d="M476 744v153h149v-153h-149zM476 1052v302h302v-457h-153v155h-149z" />
<glyph unicode="&#x201a;" d="M476 8v302h302v-457h-153v155h-149zM476 -147h149v-153h-149v153z" />
<glyph unicode="&#x201c;" d="M249 744v456h151v-153h151v-303h-302zM400 1200v155h151v-155h-151zM703 744v456h152v-153h151v-303h-303zM855 1200v155h151v-155h-151z" />
<glyph unicode="&#x201d;" d="M249 744v153h148v-153h-148zM249 1052v302h301v-457h-153v155h-148zM703 744v153h149v-153h-149zM703 1052v302h302v-457h-153v155h-149z" />
<glyph unicode="&#x201e;" d="M249 8v302h301v-457h-153v155h-148zM249 -147h148v-153h-148v153zM703 8v302h302v-457h-153v155h-149zM703 -147h149v-153h-149v153z" />
<glyph unicode="&#x2022;" d="M400 303v456h455v-456h-455z" />
<glyph unicode="&#x2026;" d="M74 0v303h204v-303h-204zM529 0v303h201v-303h-201zM982 0v303h203v-303h-203z" />
<glyph unicode="&#x202f;" horiz-adv-x="303" />
<glyph unicode="&#x2039;" d="M400 456v150h151v155h304v-155h-151v-150h151v-153h-304v153h-151z" />
<glyph unicode="&#x203a;" d="M400 303v153h150v150h-150v155h303v-155h152v-150h-152v-153h-303z" />
<glyph unicode="&#x205f;" horiz-adv-x="379" />
<glyph unicode="&#x20ac;" d="M114 397v106h83v52h-83v106h83v100h152v148h151v154h608v-154h-456v-148h-152v-100h609v-106h-609v-52h479v-106h-479v-94h152v-148h456v-155h-608v155h-151v148h-152v94h-83z" />
<glyph unicode="&#x2122;" d="M106 991v72h425v-72h-143v-423h-141v423h-141zM655 568v495h141v-72h71v-70h71v70h70v72h140v-495h-140v213h-70v-72h-71v72h-71v-213h-141z" />
<glyph unicode="&#x25fc;" horiz-adv-x="1060" d="M0 0v1061h1061v-1061h-1061z" />
</font>
</defs>
</svg>
