<svg width="45px" height="46px" xmlns="http://www.w3.org/2000/svg" viewBox="0 0 45 46"><path fill="#FFF" fill-rule="nonzero" stroke="#000" stroke-width="2" d="M25.7 4.2c.3 1.9.6 5.8.8 8.7.1 2.9.6 5.3 1.1 5.5.6.1 1.7-3.2 2.5-7.3 1.4-6.4 2-7.6 3.6-7.6 2.2 0 2.2.4 1 11.3-.3 3.5-.3 6.3.2 6.3s2-2 3.1-4.5c2.1-4.4 4.6-6.5 5.9-5.1.4.3-.3 3.4-1.5 6.9A91.9 91.9 0 0039 31c-2 11-9.5 16-19.1 13-5.5-1.5-21-16.5-18.8-17.9 1.7-1 5.1 0 9.2 3 2.7 2 3 2 3.6.3.3-1 0-4.9-.7-8.8-2-10.2-2-15 .2-15.5 1.2-.2 2 1.5 3.8 7.3 1.3 4.2 2.7 7.6 3 7.6.6 0 1-4 1-8.8 0-5 .3-9.3.7-9.6 1.5-1.6 3.1-.5 3.7 2.5z"/></svg>