<svg width="45px" height="46px" xmlns="http://www.w3.org/2000/svg" viewBox="0 0 45 46"><g fill="none" fill-rule="evenodd"><path fill="#000" fill-rule="nonzero" d="M20.2 6.2c-.6.5-1.1 1.5-1.7 3.4-.2.5-.2.6-1.4-.3-.8-.5-1.4-.9-2.4-.9s-2.4.4-3.1 2.2c-.8 1.7-.8 1.7-.8 5.7l.1 4.4h-.8c-1.1.2-2.8 1.9-3.4 3.5-.8 2-1 7.2-.3 9.1.8 2.2 1.6 3.7 2.2 4.5.4.3.8 1 1.1 1.5a23 23 0 006.3 5c3.3 1.5 4.4 1.7 8.4 1.7 2.2 0 2 0 5.1-.8 3.2-.7 6.9-3.8 8.4-7C40 34 41 29 41 22c0-4.3-.1-5.2-.6-6.4l-1-2c-.8-.8-2.6-1.5-3.4-1.3-.7.2-.8 0-1.4-1.5-.3-.9-1-2-1.6-2.6a4 4 0 00-5.1-.4c-1 .8-1 .8-1.3.2L25 6.2c-1-1-1.5-1.2-2.5-1.2s-1.8.7-2.3 1.2z"/><path fill="#FFF" fill-rule="nonzero" d="M24.6 9.3c.8 1.2.9 1.8 1 5 .2 4 .6 5.4 1.4 5.4 1.2 0 1.4-.7 1.4-4.9 0-3.8 0-4.2.6-4.6.8-.5 2-.3 2.7.4 1.1 1.3 1.5 3.2 1.5 7 0 3.6 0 3.8.8 4 .4.2.8.2 1 0 .1-.1.3-1.5.3-3 0-2.4.1-3 .6-3.2.8-.5 2-.2 2.8 1.4.9 1.8.1 10.3-.5 14-.5 3.7-2.2 7.6-5.3 10.2-3.6 3-8.1 4.1-11.8 3.5-2.8-.4-8-3.6-9.8-6a15 15 0 01-2.8-6 8.3 8.3 0 010-5.7c.6-2 1.6-3.2 2.6-3.2.6 0 .8.2 1 1.2v2.6c-.2 2 0 2.4 1 2.4.5 0 .7-.3.9-.9.3-1.1-.1-6-.7-8.2-.3-1-.5-3-.5-4.6 0-2.6.1-2.8.9-3.9.7-1 1.9-1.2 3 0 .8.9 2 4.9 2 6.9 0 1 .2 1.4 1 1.7 1 .3 1.2-.4 1-5.7-.2-5.1-.1-5.3.6-6.2 1.1-1.3 2.3-1.2 3.3.4z"/></g></svg>