<svg xmlns="http://www.w3.org/2000/svg" fill="#aaa" viewBox="0 0 900 900">
  <path d="M201.2 70.2c2.9-2 5.8-1.2 5.8.9 0 2-7.3 3.3-5.8-.9Z"/>
  <path d="M488.2 212.2c2.9-2 5.8-1.2 5.8.9 0 2-7.3 3.3-5.8-.9Z"/>
  <path d="M678.2 346.2c2.9-2 5.8-1.2 5.8.9 0 2-7.3 3.3-5.8-.9Z"/>
  <path d="M95.8 634c-2.4-2.6-1.8-5.6.2-5.8 2.1-.2 4.1 6.9-.2 5.9Z"/>
  <path fill="#14ab71" d="M360.4 520.4c2-3 5-3.2 5.7-1.2.7 2-5.7 5.6-5.7 1.2Z"/>
  <path fill="#92366a" d="M197.4 117.8c.3 2.3-1 3.7-2.3 3-1.2-.6.3-5.1 2.3-3Z"/>
  <path d="M250.3 123.7c2.3.2 3.4 1.8 2.5 2.8-.9 1-5-1.3-2.5-2.8Z"/>
  <path d="M251.5 138.6c1.8-.2 2.5 1 1.6 2-.9 1-3.9-.3-1.6-2Z"/>
  <path d="M109.2 293.7c1.9-.3 2.5 1 1.6 2-.9 1-3.8-.4-1.6-2Z"/>
  <path fill="#14ab71" d="M561.2 176.7c1.9-.3 2.5 1 1.6 2-.8 1-3.8-.4-1.6-2Z"/>
  <path d="M772.2 69.7c1.9-.3 2.5 1 1.6 2-.8 1-3.8-.4-1.6-2Z"/>
  <path d="M855 114.1c-1.5 2.8-4 2.4-4.5.1s4.5-5 4.6 0Z"/>
  <path fill="#14ab71" d="M334.2 702.2c2.9-2 5.8-1.2 5.8.9 0 2-7.3 3.3-5.8-.9Z"/>
  <path d="M554.2 737.2c2.9-2 5.8-1.2 5.8.9 0 2-7.3 3.3-5.8-.9Z"/>
  <path fill="#14ab71" d="M802.2 802.7c1.9-.3 2.5 1 1.6 2-.8 1-3.8-.4-1.6-2Z"/>
  <path fill="#92366a" d="M119.3 304.8c.8 3.5-1.3 5.5-3.4 4.4-2-1 0-7.8 3.4-4.4Z"/>
  <path d="M310.3 497.7c2.3.2 3.4 1.8 2.5 2.8-.9 1-5-1.3-2.5-2.8Z"/>
  <path d="M338.2 533.7c1.9-.3 2.5 1 1.6 2-.8 1-3.8-.4-1.6-2Z"/>
  <path fill="#635f9b" d="M729.3 409.7c2.3.2 3.4 1.8 2.5 2.8-.9 1-5-1.3-2.5-2.8Z"/>
  <path fill="#14ab71" d="M752.2 425.7c1.9-.3 2.5 1 1.6 2-.8 1-3.8-.4-1.6-2Z"/>
  <path d="M641.2 604.7c1.9-.3 2.5 1 1.6 2-.8 1-3.8-.4-1.6-2Z"/>
  <path d="M770.2 394.7c1.9-.3 2.5 1 1.6 2-.8 1-3.8-.4-1.6-2Z"/>
  <path fill="#92366a" d="M375.2 265.6c1.9-.2 2.5 1 1.6 2-.9 1-3.8-.3-1.6-2Z"/>
  <path fill="#635f9b" d="M406.7 297c1 2.8-.6 4.5-2.4 3.8-2-.8-1-6.3 2.4-3.8Z"/>
  <path fill="#14ab71" d="M43 814.5c.7 2-.4 3.2-1.7 2.6-1.3-.5-.6-4.4 1.7-2.6Z"/>
  <path d="M227 849.8c.6 2-.5 3.2-1.8 2.6-1.3-.5-.6-4.4 1.7-2.6Z"/>
  <path d="M202.4 877.3c-3.3-1.6-3.5-4.5-1.4-5.4 2.2-1 6.2 4.7 1.4 5.4Z"/>
</svg>