<?xml version="1.0" encoding="UTF-8"?>
<svg width="900px" height="902px" viewBox="0 0 900 902" version="1.1" xmlns="http://www.w3.org/2000/svg" xmlns:xlink="http://www.w3.org/1999/xlink">
    <title>Artboard</title>
    <g id="Artboard" stroke="none" stroke-width="1" fill="none" fill-rule="evenodd">
        <g id="face" transform="translate(461.500000, 455.500000) scale(-1, 1) rotate(180.000000) translate(-461.500000, -455.500000) translate(141.000000, 15.000000)" fill-rule="nonzero">
            <g id="shadow" transform="translate(11.000000, 179.000000)" fill="#B4B4B4">
                <path d="M282.347664,122.12405 C204.87083,128.427215 190.006353,149.697716 171.218896,173.042474 C108.247713,202.015057 68.9496356,151.801451 112.307261,147.583262 C188.600507,140.549819 260.925251,108.724464 260.925251,108.724464 C260.925251,108.724464 255.102371,108.703025 285.025466,93.9849205 C314.94856,79.2654761 330.1009,123.860636 282.347664,122.12405" id="path20"></path>
                <path d="M484.688434,388.127277 C454.689488,467.146409 395.131361,556.003628 395.131361,556.003628 C395.131361,556.003628 331.945505,566.980876 216.017216,567.994796 C100.088928,569.008716 99.4406416,421.54533 106.410053,406.780205 C134.778258,391.566077 80.5989029,339.010121 141.163544,370.806701 C209.597177,379.489639 211.423072,325.939748 209.333853,345.492013 C223.272676,385.445252 166.560326,420.103725 166.560326,420.103725 C166.560326,420.103725 162.114552,463.430479 201.313817,454.744877 C240.513081,446.059274 284.938735,431.47002 278.840834,462.738989 C272.742934,494.007957 243.967043,482.150025 238.740653,496.047788 C233.514262,509.945552 263.200427,531.562963 329.634398,505.374252 C431.784264,480.052903 368.42063,453.440504 384.43798,417.439021 C386.970974,401.618673 464.543439,340.358461 475.331725,320.177325 C486.12001,299.99619 514.68738,309.108145 484.688434,388.127277" id="path24"></path>
                <path d="M42.1076673,311.789412 C15.8594229,266.956633 7.09488917,250.429459 10.3432361,245.445815 L4.75501212,245.056092 C4.75501212,245.056092 -14.5923292,88.5170753 24.7653631,22.166805 C64.1230554,-44.1834653 114.577154,57.7263216 122.149071,76.888127 C129.720988,96.0485977 74.1242289,154.298778 74.1242289,154.298778 L123.483095,193.004103 L147.495516,237.048094 L164.83782,251.729424 C164.83782,251.729424 92.9112804,232.000386 62.1180183,249.060091 L43.4483608,247.756122 C48.9071846,278.219883 80.2994232,298.091731 92.8005565,314.458745 C129.235404,342.093012 174.175984,286.43075 174.175984,286.43075 C175.64341,293.237549 174.131961,291.586567 176.844031,311.789412 C178.236109,318.931223 177.091201,345.745017 164.83782,351.829403 C148.25195,360.065076 117.066173,346.990542 98.1366501,351.829403 C81.4746978,353.132038 68.2091691,347.646559 42.1076673,311.789412 Z" id="path28"></path>
                <path d="M543.86474,213.009724 C537.678781,216.703223 515.493869,210.190538 523.862716,191.354911 C523.862716,191.354911 540.155031,197.223365 557.199423,179.174078 C562.265269,164.119922 601.647921,193.137372 543.86474,213.009724" id="path32"></path>
                <path d="M420.800187,247 C420.800187,247 443.160706,277.115565 384.691693,332.286791 C326.22268,387.458017 269.679453,354.675906 269.679453,350.943277 C269.679453,350.943277 228.618747,245.030408 367.306122,248.332606 C367.306122,248.332606 373.45259,256.702705 329.860276,272.319516 C367.017254,288.357431 420.800187,247 420.800187,247" id="path36"></path>
                <path d="M281.683827,214 C266.094204,206.495279 304.726354,122.83134 309.567489,117.768494 C314.408624,112.705647 309.47056,73.0261898 305.584108,42.9217669 C301.697657,12.8173441 321.51763,37.5755722 321.51763,37.5755722 C431.850626,144.715989 281.683827,214 281.683827,214" id="path40"></path>
                <path d="M229.985932,189.750862 C196.628982,192.784357 178.964998,229.612813 178.964998,229.612813 C155.801493,253.483478 136,224.297886 136,224.297886 C136,224.297886 149.453415,209.632675 172.251717,180.44974 C195.050019,151.266806 263.342882,186.716039 229.985932,189.750862" id="path44"></path>
                <path d="M544.902325,153.411145 C540.175917,162.698535 518.28217,142.72831 523.079122,154.746499 C527.874743,166.764689 517.59537,176 517.59537,176 C501.644574,160.755594 489,145.399018 489,145.399018 C489,145.399018 502.310077,142.72831 507.634108,142.035261 C512.958139,141.343547 494.95626,102 514.289147,102 C526.268217,102 551.557364,140.335354 544.902325,153.411145" id="path48"></path>
            </g>
            <path d="M132.615843,32.0179552 C132.615843,32.0179552 126.033773,76.2587649 97.8184031,76.0426437 C69.6030331,75.8265225 43.7351519,102.153286 33.5769763,128.071821 C23.4188007,153.990356 35.0076864,194.347654 20.1933457,213.453035 C20.1933457,213.453035 23.7172556,345.812594 3.0890658,173.430591 C3.81847366,137.393048 -8.75946236,97.1464785 12.1631673,74.7085622 L150.014562,0 C162.318134,13.3768349 132.615843,32.0179552 132.615843,32.0179552" id="path60" fill="#1F1612"></path>
            <path d="M331.427194,507.674216 C318.752946,505.134295 296.727396,495.712742 304.693914,472.844074 C312.660431,449.975406 346.80747,453.894946 357.189339,452.811193 C364.812685,452.80418 362,469.050272 356.451191,481.469413 C371.370885,466.697876 371.566829,453.383249 373.866488,452.811193 C384.50208,450.165516 388.363238,451.046635 396.751103,446.196739 C406.64108,439.7612 439.878765,426.538739 406.280378,462.127107 C362.376312,498.169606 344.101442,510.214138 331.427194,507.674216 Z" id="path64" fill="#1F1612"></path>
            <path d="M313.852715,550.037639 C302.258336,550.787011 281.892071,560.743906 279.139007,539.351408 C276.385943,517.960245 315.175841,525.95221 337.885282,524.65784 C360.594722,523.36347 396.331149,492.656585 397.966699,515.307388 C399.602248,537.95819 340.570253,548.313148 313.852715,550.037639" id="path68" fill="#1F1612"></path>
            <path d="M286.992721,402.840778 C272.42174,387.886956 280.468222,345.992995 267.440585,344.926297 C270.918449,322.665994 287.690964,304.735309 304.348662,290.556781 C303.38474,272.213052 277.647214,285.209924 277.647214,285.209924 C277.647214,285.209924 285.485424,265.763406 270.971852,263.822497 C234.595133,263.516389 168.530409,304.238052 136.129536,301.250495 C124.079172,308.491476 133.886614,323.943893 116.103449,330.658209 C106.560352,339.023367 113.152939,354.620148 137.464608,353.382351 C161.776277,352.144554 134.930641,349.620837 192.202578,344.025351 C252.769474,344.205808 262.588932,355.332617 252.280838,369.422922 C232.906266,378.150329 227.720845,366.024994 214.898809,364.076065 C202.075439,362.127136 155.888608,396.226716 158.825767,404.177492 C161.761591,412.128269 173.630385,407.773254 189.532433,408.187635 C193.436185,427.588706 220.239099,519.134917 220.239099,519.134917 C220.239099,519.134917 217.49419,539.166917 192.202578,547.205917 C166.909631,555.244916 156.813813,554.611313 133.459391,547.205917 C111.078237,538.824718 106.369436,531.661267 121.443739,523.14506 C141.636494,512.874008 158.561413,510.20065 170.24951,506.88359 C171.859021,506.426814 176.640146,520.905938 176.640146,530.656708 C180.162537,522.311742 182.857071,511.155168 179.172403,511.155168 C178.197228,511.155168 172.634131,511.155168 173.581753,513.617889 C172.318797,511.155168 172.318797,511.155168 170.24951,506.88359 C180.947609,501.513398 186.244729,476.043122 182.857071,465.666348 C176.355268,431.787325 145.249416,419.131315 144.13997,406.850921 C143.030525,394.570527 126.207278,373.895568 102.752725,368.086208 C78.4984642,359.874772 63.159817,354.247205 64.0356245,334.668352 C77.7054311,305.830078 87.4501248,329.324168 92.0721456,315.954352 C95.1000899,294.079023 117.648128,255.218067 146.810115,254.465497 C234.71796,257.033325 236.20256,237.552051 266.966634,238.424926 C297.730708,239.2978 323.440198,255.218067 307.018807,237.088212 C298.137905,211.1867 303.012255,200.996927 312.359097,200.996927 C321.705939,200.996927 360.98644,252.635535 360.421705,279.863067 C335.211532,298.582414 325.334666,348.57419 321.294737,356.335153 C317.254808,364.096116 297.529112,375.182824 286.992721,402.840778 Z M603.404887,394.820493 C605.184539,361.555022 596.729525,325.753804 575.368366,302.58721 C530.901109,267.120171 532.942434,245.693978 508.614745,229.067926 C482.506068,205.30783 471.973682,251.043508 445.86634,207.680498 C436.965412,189.265923 490.001165,207.723273 519.295324,223.721069 C550.37581,240.694667 617.606053,324.375652 612.750394,390.81035 C609.924046,392.931715 602.128558,398.360112 603.404887,394.820493 Z" id="path72" fill="#1F1612"></path>
            <path d="M213.457801,568.986668 C190.274932,605.589901 141.547939,614.396995 121.878351,601.231738 C107.454076,582.145252 135.669411,573.192663 166.897841,572.991106 C190.914799,565.549526 228.773367,523.169223 213.457801,568.986668" id="path76" fill="#1F1612"></path>
            <path d="M628.950168,538.803389 C639.150305,559.689724 643.429289,584.41589 639.63094,597.487855 C635.83259,610.55982 593.835794,618.043423 602.248237,637.5 C610.66068,656.956559 635.609629,647.221606 611.593913,674.844651 C573.319366,718.329841 601.624747,713.082916 588.897272,737.530331 C576.169797,761.977747 481.108254,870.996146 407.324145,878.906546 C333.540036,886.816945 222.130237,873.004755 183.02793,825.557031 C143.925623,778.109306 158.710482,791.728103 138.969745,794.88106 C119.229008,798.034016 120.557429,776.332767 118.943297,768.206302 C117.32783,760.079838 76.6220724,786.358475 64.2043397,764.205089 C51.7866069,742.051703 81.1387039,704.68837 58.8639536,708.188098 C36.5892032,711.687826 21.2649654,727.911414 30.8269267,669.5097 C40.3888879,611.107986 10.9152972,604.899436 29.4918301,566.811884 C48.0683631,528.724332 1.85666726,413.74279 18.811058,413.432029 C20.5907416,413.278649 21.5159635,412.793169 21.9525401,412.414387 C20.2943502,416.785046 17.3064042,454.333768 138.969745,677.512127 C167.456699,723.052607 174.169565,703.813438 211.064957,702.853147 C233.266277,702.199615 233.66013,697.747598 236.431791,710.855574 C245.196699,722.511109 347.936382,730.308141 363.26596,708.188098 C378.595538,686.068056 411.767347,666.432767 411.329435,646.836156 C410.891523,627.239546 403.272127,589.095976 418.004917,586.817952 C432.737708,584.539928 444.73889,596.492887 448.712137,577.481787 C447.43712,544.738522 488.463301,560.441952 476.749164,468.115282 C481.279147,443.713214 491.524678,456.211671 503.451095,438.773049 C506.600587,415.355279 490.644849,331.661894 499.445805,324.071592 C518.992953,320.975986 554.976475,419.351158 575.546307,409.430815 C596.116139,399.510473 604.993196,399.44512 606.253527,388.091009 C607.513858,376.736899 635.187739,388.696526 628.950168,468.115282 C624.243952,501.175976 618.75003,517.917054 628.950168,538.803389 M21.9525401,412.414387 C22.255607,411.612811 22.5132806,411.924905 21.9525401,412.414387" id="path80" fill="#1F1612"></path>
            <path d="M284.06698,95.6627884 C243.62273,95.8430573 149.703962,145.163297 120.904435,163.764378 C92.1049084,182.36546 93.9144078,183.70212 119.567037,194.47686 C145.219666,205.2516 260.817655,171.629444 198.473514,210.500764 C136.129373,249.372083 166.375964,251.895848 166.375964,251.895848 C-58.3817795,332.562849 79.4450998,213.864448 50.0223457,214.506739 C20.5995916,215.149031 25.0638258,246.554546 19.2621937,246.554546 C15.7314632,246.554546 -5.49839126,217.396383 72.7581102,142.399174 C238.960561,28.6655125 324.511231,95.4825195 284.06698,95.6627884" id="path84" fill="#1F1612"></path>
        </g>
    </g>
</svg>