<svg xmlns="http://www.w3.org/2000/svg" fill="none" viewBox="0 0 179 39"><g clip-path="url(#a)"><path fill="url(#b)" d="M6.4 37.2c-2.84 0-4.25-.32-4.25-.94V5.93c0-1.06.48-1.59 1.45-1.59h8.21c4.61 0 7.93.95 9.95 2.85 2.06 1.9 3.08 4.67 3.08 8.29 0 3-.96 5.74-2.9 8.24a9.84 9.84 0 0 1-4.24 3 17.5 17.5 0 0 1-6.54 1.11v8.38c0 .38-.6.64-1.77.8-1.16.12-2.15.18-3 .18Zm4.76-24.72v7.4h.6c1.1 0 2.02-.35 2.76-1.03a3.74 3.74 0 0 0 1.12-2.9c0-1.25-.26-2.14-.79-2.67-.5-.53-1.4-.8-2.7-.8h-.99ZM37.9 36.44c0 .5-1.48.75-4.44.75-2.99 0-4.48-.23-4.48-.7V5.98c0-1.1.57-1.64 1.72-1.64h8.92c8.19 0 12.28 3.2 12.28 9.6 0 1.93-.37 3.7-1.12 5.28a9.3 9.3 0 0 1-3.17 3.75l5.88 9.82c-.25.75-1.06 1.61-2.43 2.58-1.86 1.34-3.4 2.01-4.62 2.01-1.21 0-2.12-.44-2.7-1.3l-4.4-10.26H37.9v10.63Zm0-23.82v7.02h.23c2.96 0 4.44-1.23 4.44-3.7 0-1.12-.3-1.94-.9-2.47-.55-.57-1.49-.85-2.8-.85h-.97Zm21.7 16.43V12.39h-3.31c-.53 0-.9-.67-1.12-2.01a14.24 14.24 0 0 1 0-4.03c.21-1.34.59-2.01 1.12-2.01h15.69c.53 0 .88.67 1.07 2.01a10.75 10.75 0 0 1 0 4.03c-.19 1.34-.54 2.01-1.07 2.01h-3.13v16.66h3.27c.53 0 .9.67 1.12 2.01a10.76 10.76 0 0 1 0 4.03c-.22 1.34-.6 2.01-1.12 2.01H56.37c-.53 0-.89-.67-1.07-2.01a10.76 10.76 0 0 1 0-4.03c.18-1.34.54-2 1.07-2h3.22ZM89.9 3.92c2.27 0 4.26.33 5.97.98 1.74.63 2.62 1.48 2.62 2.58 0 1.09-.42 2.44-1.27 4.07-.8 1.59-1.49 2.38-2.05 2.38-.16 0-.34-.07-.56-.23-.19-.19-.65-.37-1.4-.56a6.54 6.54 0 0 0-1.87-.33c-1.8 0-3.27.64-4.39 1.92-1.09 1.28-1.63 3.24-1.63 5.9 0 2.62.56 4.57 1.68 5.85a5.6 5.6 0 0 0 4.34 1.92c.72 0 1.51-.1 2.38-.29.9-.21 1.54-.51 1.92-.88.06-.07.18-.1.37-.1s.53.36 1.03 1.08c.53.68 1.01 1.6 1.45 2.76.43 1.12.65 2 .65 2.62 0 1.22-.93 2.18-2.8 2.9a18.47 18.47 0 0 1-6.63 1.08 13.1 13.1 0 0 1-10.14-4.35c-2.64-2.9-3.97-7-3.97-12.27 0-5.3 1.36-9.47 4.07-12.5a13.23 13.23 0 0 1 10.22-4.53Zm22.15 32.52c0 .47-1.46.7-4.39.7l-2.61-.13c-1.56-.13-2.34-.35-2.34-.66V4.95c0-.53 1.56-.8 4.67-.8 3.12 0 4.67.27 4.67.8v11.98l5.7-11.98c.22-.44 1.46-.66 3.73-.66 4.15 0 6.33.36 6.54 1.08 0 .06-.01.12-.04.19l-8.13 14.7 9.43 13.05c0 .06-.3.33-.88.8a16.16 16.16 0 0 1-5.05 2.94c-.59.22-1.18.33-1.77.33l-1.12-.1c-1-.24-1.78-.88-2.34-1.91l-5.32-10.2h-.75v11.27Zm19.15-2.1V5.23c0-.66 1.58-.98 4.72-.98 3.18 0 4.76.32 4.76.98v22.93h7.2c.55 0 .94.73 1.16 2.2a16.92 16.92 0 0 1 0 4.5c-.25 1.5-.65 2.24-1.21 2.24h-14.38c-.69 0-1.23-.28-1.64-.84a3.2 3.2 0 0 1-.6-1.92Zm35.37-28.46c.4-1.09 2.4-1.63 5.98-1.63.9 0 1.96.06 3.17.18 1.25.13 1.82.28 1.73.47l-9.71 19.56v11.42c0 .53-.86.9-2.57 1.13-.87.12-1.73.18-2.57.18-.84 0-1.68-.04-2.52-.14-1.71-.22-2.57-.6-2.57-1.17V24.74L147.46 5c-.12-.2.52-.36 1.92-.52 1.4-.19 2.58-.28 3.55-.28 3.82 0 5.93.56 6.3 1.68l3.4 9.55 3.93-9.55Z"/><path fill="#133E15" d="M5 6.82C3.26 9.27-.02 2.65.27 2.24c.3-.4 5.6 3.35 4.73 4.58Z"/><path fill="#133E15" d="M21.98 13.98c-2.44-1.75 4.2-4.99 4.6-4.7.4.3-3.39 5.58-4.6 4.7Z"/><path fill="#133E15" d="M4.57 17.52c-.53 2.95-3.84-1.2-3.75-1.69.09-.49 4 .21 3.75 1.69Z"/><path fill="#133E15" d="M38 7.7c-2.56 1.55-2.17-4.55-1.74-4.8.42-.27 3.03 4.01 1.74 4.8Z"/><path fill="#133E15" d="M31.13 22.98c-.52 2.95-3.83-1.2-3.74-1.68.08-.5 4 .2 3.74 1.68Z"/><path fill="#133E15" d="M49.04 11.05c-2.6-1.5 2.43-3.2 2.86-2.95.43.25-1.56 3.7-2.86 2.95Z"/><path fill="#133E15" d="M63.37 7.59c-2.16 2.07-4.14-5.04-3.78-5.38.36-.35 4.86 4.34 3.78 5.38Z"/><path fill="#133E15" d="M66.64 20.6c-2.49-1.5 3.2-4.36 3.61-4.11.42.25-2.37 4.86-3.61 4.11Z"/><path fill="#133E15" d="M58.13 29.98c-.52 2.95-3.83-1.2-3.74-1.68.08-.5 4 .2 3.74 1.68Z"/><path fill="#133E15" d="M84.6 8.18c-2.8 1.11-1.02-3.88-.55-4.07.46-.18 1.94 3.51.54 4.07Z"/><path fill="#133E15" d="M96.05 33.26c-2.62-1.47 3.61-5.43 4.05-5.18.44.24-2.74 5.91-4.05 5.18Z"/><path fill="#133E15" d="M78.08 22.35c-1.29 2.7-4.35-2.63-4.13-3.08.21-.45 4.78 1.72 4.13 3.08Z"/><path fill="#133E15" d="M119.7 8.64c-2.67 1.38-2.19-5.27-1.75-5.5.45-.23 3.07 4.8 1.74 5.5Z"/><path fill="#133E15" d="M123.98 31.34c-2.45-1.72 3.67-4.36 4.08-4.08.41.29-2.85 4.94-4.08 4.08Z"/><path fill="#133E15" d="M104.4 11.03c-1.91 2.3-3.31-3.42-3-3.8.33-.38 3.97 2.64 3 3.8Z"/><path fill="#133E15" d="M132.97 17.15c-2.02 2.22-3.17-3.56-2.83-3.93.34-.37 3.84 2.82 2.83 3.93Z"/><path fill="#133E15" d="M136.66 7.84c-2.98.3.03-4.76.53-4.81.5-.05.96 4.66-.53 4.8Z"/><path fill="#133E15" d="M137.95 21.45c-2.36-1.85 4.2-4.56 4.6-4.25.4.3-3.42 5.17-4.6 4.25Z"/><path fill="#133E15" d="M165.25 31.66c.15-3 4.7.73 4.68 1.23-.03.5-4.76.26-4.68-1.23Z"/><path fill="#133E15" d="M172.02 7.92c-2.54-1.6 3.75-5.01 4.17-4.75.43.27-2.9 5.55-4.17 4.75Z"/><path fill="#133E15" d="M160.89 19.5c-1.64 2.51-4.96-3.83-4.69-4.25.27-.42 5.5 2.99 4.69 4.25Z"/></g><defs><linearGradient id="b" x1="175.5" x2="2" y1="5.5" y2="33.5" gradientUnits="userSpaceOnUse"><stop stop-color="#14AB71"/><stop offset="1" stop-color="#1A9868"/></linearGradient><clipPath id="a"><path fill="#fff" d="M0 0h179v39H0z"/></clipPath></defs></svg>