<svg xmlns="http://www.w3.org/2000/svg" display="none">
  <symbol id="fr" viewBox="0 0 512 512">
    <path fill="#EEE" d="M376 0v512H136V0z"/>
    <path fill="#026" d="M168 0v512H0V0z"/>
    <path fill="#D80027" d="M512 0v512H344V0z"/>
  </symbol>

  <symbol id="th" viewBox="0 0 512 512">
    <path fill="#EEE" d="M0 0h512v512H0z"/>
    <path fill="#D80027" fill-rule="evenodd" d="M512 0H0v85.3h512V0Zm0 426.7H0V512h512v-85.3Z" clip-rule="evenodd"/>
    <path fill="#026" d="M0 170.7h512v170.7H0z"/>
  </symbol>

  <symbol id="es" viewBox="0 0 512 512">
    <path fill="#FFDA44" d="M512 128v256H0V128h512Z"/>
    <path fill="#D80027" d="M512 368v144H0V368h512Zm0-368v144H0V0h512Z"/>
    <path fill="#EEE" d="M144 304h-16v-80h16v80Zm128 0h16v-80h-16v80Z"/>
    <path fill="#D80027" d="M122 248a4 4 0 1 0 0 8h172a4 4 0 1 0 0-8H122Zm0 24a4 4 0 1 0 0 8h28a4 4 0 1 0 0-8h-28Zm144 0a4 4 0 1 0 0 8h28a4 4 0 1 0 0-8h-28Z"/>
    <path fill="#EEE" fill-rule="evenodd" d="M196 168c-7 0-13 5-15 11l-5-1c-9 0-16 7-16 16s7 16 16 16c7 0 13-4 15-11a16 16 0 0 0 17-4 16 16 0 0 0 17 4 16 16 0 1 0 10-20 16 16 0 0 0-27-5c-3-4-7-6-12-6Zm0 8c5 0 8 4 8 8 0 5-3 8-8 8-4 0-8-3-8-8 0-4 4-8 8-8Zm24 0c5 0 8 4 8 8 0 5-3 8-8 8-4 0-8-3-8-8 0-4 4-8 8-8Zm-44 10 4 1 4 8c0 4-4 7-8 7s-8-3-8-8c0-4 4-8 8-8Zm64 0c5 0 8 4 8 8 0 5-3 8-8 8-4 0-8-3-8-7l4-8 4-1Zm-32 142c26.5 0 48-14.3 48-32 0-9.6-6.3-18.1-16.3-24H256v-48h-48v40c-26.5 0-48 14.3-48 32s21.5 32 48 32Z" clip-rule="evenodd"/>
    <path fill="#FF9811" d="M200 160h16v32h-16v-32Z"/>
    <path fill="#D80027" fill-rule="evenodd" d="m248 208-8 8h-64l-8-8c0-13 18-24 40-24s40 11 40 24Zm-112-16a8 8 0 0 1 8 8v8a8 8 0 0 1-16 0v-8a8 8 0 0 1 8-8Zm144 0a8 8 0 0 1 8 8v8a8 8 0 0 1-16 0v-8a8 8 0 0 1 8-8Zm-72 80v24a24 24 0 0 0 48 0v-24h-48Zm0 0h-48v-48h48v48Zm34-30a10 10 0 1 0-20 0v12a10 10 0 1 0 20 0v-12Z" clip-rule="evenodd"/>
    <path fill="#FF9811" fill-rule="evenodd" d="M128 208h16a8 8 0 0 1 0 16h-16a8 8 0 0 1 0-16Zm144 0h16a8 8 0 0 1 0 16h-16a8 8 0 0 1 0-16Zm-128 96h-16a8 8 0 0 0 0 16h16a8 8 0 0 0 0-16Zm128 0h16a8 8 0 0 1 0 16h-16a8 8 0 0 1 0-16Zm-112-32v24c0 8 4 14 9 19l5-6 5 10c3.3.8 6.7.8 10 0l5-10 5 6c6-5 9-11 9-19v-24h-9l-5 8-5-8h-10l-5 8-5-8h-9Zm8-32v-8h32v8h-8v16h8v8h-32v-8h8v-16h-8Zm72-24h-64v8h64v-8Z" clip-rule="evenodd"/>
    <path fill="#D80027" d="M169 272v43c3 2 6.4 3.4 10 4v-47h-10Zm20 0v47c3.6-.6 7-2 10-4v-43h-10Z"/>
    <path fill="#FFDA44" fill-rule="evenodd" d="M186 208a6 6 0 1 0 0-12 6 6 0 0 0 0 12Zm22 0a6 6 0 1 0 0-12 6 6 0 0 0 0 12Zm28-6a6 6 0 1 1-12 0 6 6 0 0 1 12 0Z" clip-rule="evenodd"/>
    <path fill="#0052B4" fill-rule="evenodd" d="M208 288a16 16 0 1 0 0-32 16 16 0 0 0 0 32Zm80 32h-16a8 8 0 0 0 0 16h16a8 8 0 0 0 0-16Zm-160 0h16a8 8 0 0 1 0 16h-16a8 8 0 0 1 0-16Z" clip-rule="evenodd"/>
  </symbol>

  <symbol id="de" viewBox="0 0 512 512">
    <path fill="#D80027" d="M0 136h512v240H0z"/>
    <path fill="#FFDA44" d="M0 344h512v168H0z"/>
    <path fill="#333" d="M0 0h512v168H0z"/>
  </symbol>

  <symbol id="id" viewBox="0 0 512 512">
    <path fill="#A2001D" d="M512 307.2H0V0h512z"/>
    <path fill="#EEE" d="M512 512H0V256h512z"/>
  </symbol>

  <symbol id="jp" viewBox="0 0 512 512">
    <path fill="#EEE" d="M0 0h512v512H0z"/>
    <path fill="#D80027" d="M256 368a112 112 0 1 0 0-224 112 112 0 0 0 0 224Z"/>
  </symbol>

<symbol id="af" viewBox="0 0 512 512">
  <path fill="#EEE" d="M376 0v512H136V0z"/>
</symbol>
<symbol id="ar" viewBox="0 0 512 512">
  <path fill="#EEE" d="M376 0v512H136V0z"/>
</symbol>
<symbol id="bn" viewBox="0 0 512 512">
  <path fill="#EEE" d="M376 0v512H136V0z"/>
</symbol>
<symbol id="bg" viewBox="0 0 512 512">
  <path fill="#EEE" d="M376 0v512H136V0z"/>
</symbol>
<symbol id="ca" viewBox="0 0 512 512">
  <path fill="#EEE" d="M376 0v512H136V0z"/>
</symbol>
<symbol id="cy" viewBox="0 0 512 512">
  <path fill="#EEE" d="M376 0v512H136V0z"/>
</symbol>
<symbol id="cs" viewBox="0 0 512 512">
  <path fill="#EEE" d="M376 0v512H136V0z"/>
</symbol>
<symbol id="da" viewBox="0 0 512 512">
  <path fill="#D80027" d="M0 0h512v512H0z"/>
  <path fill="#EEE" d="M512 288v-64H192V0h-64v224H0v64h128v224h64V288h320Z"/>
</symbol>
<symbol id="el" viewBox="0 0 512 512">
  <path fill="#EEE" d="M376 0v512H136V0z"/>
</symbol>
<symbol id="et" viewBox="0 0 512 512">
  <path fill="#EEE" d="M376 0v512H136V0z"/>
</symbol>
<symbol id="fa" viewBox="0 0 512 512">
  <path fill="#EEE" d="M376 0v512H136V0z"/>
</symbol>
<symbol id="fi" viewBox="0 0 512 512">
  <path fill="#EEE" d="M376 0v512H136V0z"/>
</symbol>

<symbol id="gu" viewBox="0 0 512 512">
  <path fill="#EEE" d="M376 0v512H136V0z"/>
</symbol>
<symbol id="he" viewBox="0 0 512 512">
  <path fill="#EEE" d="M376 0v512H136V0z"/>
</symbol>
<symbol id="hi" viewBox="0 0 512 512">
  <path fill="#EEE" d="M376 0v512H136V0z"/>
</symbol>
<symbol id="hu" viewBox="0 0 512 512">
  <path fill="#EEE" d="M376 0v512H136V0z"/>
</symbol>
<symbol id="is" viewBox="0 0 512 512">
  <path fill="#EEE" d="M376 0v512H136V0z"/>
</symbol>
<symbol id="it" viewBox="0 0 512 512">
  <path fill="#EEE" d="M376 0v512H136V0z"/>
</symbol>
<symbol id="jv" viewBox="0 0 512 512">
  <path fill="#EEE" d="M376 0v512H136V0z"/>
</symbol>
<symbol id="ka" viewBox="0 0 512 512">
  <path fill="#EEE" d="M376 0v512H136V0z"/>
</symbol>
<symbol id="kk" viewBox="0 0 512 512">
  <path fill="#EEE" d="M376 0v512H136V0z"/>
</symbol>
<symbol id="km" viewBox="0 0 512 512">
  <path fill="#EEE" d="M376 0v512H136V0z"/>
</symbol>
<symbol id="ko" viewBox="0 0 512 512">
  <path fill="#EEE" d="M376 0v512H136V0z"/>
</symbol>
<symbol id="lo" viewBox="0 0 512 512">
  <path fill="#EEE" d="M376 0v512H136V0z"/>
</symbol>
<symbol id="lv" viewBox="0 0 512 512">
  <path fill="#EEE" d="M376 0v512H136V0z"/>
</symbol>
<symbol id="lt" viewBox="0 0 512 512">
  <path fill="#EEE" d="M376 0v512H136V0z"/>
</symbol>
<symbol id="mr" viewBox="0 0 512 512">
  <path fill="#EEE" d="M376 0v512H136V0z"/>
</symbol>
<symbol id="ms" viewBox="0 0 512 512">
  <path fill="#EEE" d="M376 0v512H136V0z"/>
</symbol>
<symbol id="my" viewBox="0 0 512 512">
  <path fill="#EEE" d="M376 0v512H136V0z"/>
</symbol>
<symbol id="ne" viewBox="0 0 512 512">
  <path fill="#EEE" d="M376 0v512H136V0z"/>
</symbol>
<symbol id="nl" viewBox="0 0 512 512">
  <path fill="#EEE" d="M376 0v512H136V0z"/>
</symbol>
<symbol id="no" viewBox="0 0 512 512">
  <path fill="#EEE" d="M376 0v512H136V0z"/>
</symbol>
<symbol id="pa" viewBox="0 0 512 512">
  <path fill="#EEE" d="M376 0v512H136V0z"/>
</symbol>
<symbol id="pl" viewBox="0 0 512 512">
  <path fill="#EEE" d="M376 0v512H136V0z"/>
</symbol>
<symbol id="pt" viewBox="0 0 512 512">
  <path fill="#EEE" d="M376 0v512H136V0z"/>
</symbol>
<symbol id="ro" viewBox="0 0 512 512">
  <path fill="#EEE" d="M376 0v512H136V0z"/>
</symbol>
<symbol id="ru" viewBox="0 0 512 512">
  <path fill="#EEE" d="M376 0v512H136V0z"/>
</symbol>
<symbol id="sk" viewBox="0 0 512 512">
  <path fill="#EEE" d="M376 0v512H136V0z"/>
</symbol>
<symbol id="sl" viewBox="0 0 512 512">
  <path fill="#EEE" d="M376 0v512H136V0z"/>
</symbol>
<symbol id="so" viewBox="0 0 512 512">
  <path fill="#EEE" d="M376 0v512H136V0z"/>
</symbol>
<symbol id="sq" viewBox="0 0 512 512">
  <path fill="#EEE" d="M376 0v512H136V0z"/>
</symbol>
<symbol id="sr" viewBox="0 0 512 512">
  <path fill="#EEE" d="M376 0v512H136V0z"/>
</symbol>
<symbol id="sv" viewBox="0 0 512 512">
  <path fill="#EEE" d="M376 0v512H136V0z"/>
</symbol>
<symbol id="sw" viewBox="0 0 512 512">
  <path fill="#EEE" d="M376 0v512H136V0z"/>
</symbol>
<symbol id="ta" viewBox="0 0 512 512">
  <path fill="#EEE" d="M376 0v512H136V0z"/>
</symbol>
<symbol id="te" viewBox="0 0 512 512">
  <path fill="#EEE" d="M376 0v512H136V0z"/>
</symbol>
<symbol id="tr" viewBox="0 0 512 512">
  <path fill="#EEE" d="M376 0v512H136V0z"/>
</symbol>
<symbol id="uk" viewBox="0 0 512 512">
  <path fill="#EEE" d="M376 0v512H136V0z"/>
</symbol>
<symbol id="ur" viewBox="0 0 512 512">
  <path fill="#EEE" d="M376 0v512H136V0z"/>
</symbol>
<symbol id="vi" viewBox="0 0 512 512">
  <path fill="#EEE" d="M376 0v512H136V0z"/>
</symbol>
<symbol id="zh" viewBox="0 0 512 512">
  <path fill="#EEE" d="M376 0v512H136V0z"/>
</symbol>

</svg>